<?xml version="1.0" encoding="utf-8"?>
<!-- Generator: Adobe Illustrator 27.0.0, SVG Export Plug-In . SVG Version: 6.00 Build 0)  -->
<svg version="1.1" id="Layer_1" xmlns="http://www.w3.org/2000/svg" xmlns:xlink="http://www.w3.org/1999/xlink" x="0px" y="0px"
	 viewBox="0 0 512 512" style="enable-background:new 0 0 512 512;" xml:space="preserve">
<style type="text/css">
	.st0{fill:#444444;}
	.st1{fill:#ECF0F1;}
	.st2{fill:#FFD7B3;}
	.st3{fill:#231F20;}
</style>
<path class="st0" d="M322.2,436.5H117.5c-14,0-25.4-11.4-25.4-25.4v-375c0-14,11.4-25.4,25.4-25.4h204.7c14,0,25.4,11.4,25.4,25.4
	v375C347.6,425.1,336.2,436.5,322.2,436.5z"/>
<rect x="92.1" y="66.5" class="st1" width="255.5" height="314.1"/>
<path class="st2" d="M419.9,335.5c0-16.2-12-29.3-28.2-29.3l0,0c-16.2,0-28.2,13.1-28.2,29.3c0-16.2-12-29.3-28.2-29.3l0,0
	c-16.2,0-28.2,13.1-28.2,29.3c0-16.2-12-29.3-28.2-29.3l0,0c-16.2,0-28.2,13.1-28.2,29.3V195.2c0-16.2-12-29.3-28.2-29.3l0,0
	c-16.2,0-28.2,13.1-28.2,29.3v210.9c0,15.4,5.2,30.3,14.6,42.3l0,0c9.5,12.1,14.6,27,14.6,42.3v10.6h167.2v-10.6
	c0-15.4,5.2-30.3,14.6-42.3l0,0c9.5-12.1,14.6-27,14.6-42.3L419.9,335.5L419.9,335.5z"/>
<g>
	<path class="st3" d="M220.8,107.4c-48.4,0-87.8,39.4-87.8,87.8c0,5.9,4.8,10.6,10.6,10.6s10.6-4.8,10.6-10.6
		c0-36.7,29.9-66.5,66.5-66.5s66.5,29.9,66.5,66.5c0,5.9,4.8,10.6,10.6,10.6s10.6-4.8,10.6-10.6
		C308.6,146.8,269.2,107.4,220.8,107.4z"/>
	<path class="st3" d="M391.7,295.6c-11.2,0-21.2,4.6-28.2,12.2c-1.6-1.7-3.3-3.3-5.2-4.7V36.1c0-19.9-16.2-36.1-36.1-36.1H117.5
		C97.6,0,81.4,16.2,81.4,36.1v375c0,19.9,16.2,36.1,36.1,36.1h77.6c1.6,2.7,3.4,5.3,5.4,7.8c8,10.1,12.4,22.8,12.4,35.8v10.6
		c0,5.9,4.8,10.6,10.6,10.6h167.2c5.9,0,10.6-4.8,10.6-10.6v-10.6c0-12.9,4.4-25.6,12.4-35.8c10.9-13.9,16.9-31.2,16.9-48.9v-70.5
		C430.6,313.1,413.5,295.6,391.7,295.6z M335.3,295.6c-11.2,0-21.2,4.6-28.2,12.2c-7-7.6-17-12.2-28.2-12.2
		c-6.4,0-12.3,1.5-17.6,4.2V195.2c0-22.4-17.1-39.9-38.9-39.9s-38.9,17.5-38.9,39.9V370h-80.8V77.2H337v218.5
		C336.4,295.6,335.8,295.6,335.3,295.6z M117.5,21.3h204.7c8.1,0,14.8,6.6,14.8,14.8v19.8H102.7V36.1
		C102.7,27.9,109.4,21.3,117.5,21.3z M117.5,425.9c-8.1,0-14.8-6.6-14.8-14.8v-19.8h80.8v14.8c0,6.7,0.9,13.4,2.5,19.8L117.5,425.9
		L117.5,425.9z M409.3,406.1c0,12.9-4.4,25.6-12.4,35.7c-1.9,2.4-3.6,4.8-5.1,7.4h-79.3c-5.9,0-10.6,4.8-10.6,10.6
		s4.8,10.6,10.6,10.6h70.2c-1.7,6.6-2.7,13.4-2.7,20.2H234.1c0-17.7-6-35-16.9-48.9c-8-10.1-12.4-22.8-12.4-35.7V195.2
		c0-10.6,7.6-18.6,17.6-18.6s17.6,8,17.6,18.6v140.3c0,5.9,4.8,10.6,10.6,10.6c5.9,0,10.6-4.8,10.6-10.6c0-10.6,7.6-18.6,17.6-18.6
		c10,0,17.6,8,17.6,18.6c0,5.9,4.8,10.6,10.6,10.6s10.6-4.8,10.6-10.6c0-10.6,7.6-18.6,17.6-18.6c10,0,17.6,8,17.6,18.6
		c0,5.9,4.8,10.6,10.6,10.6s10.6-4.8,10.6-10.6c0-10.6,7.6-18.6,17.6-18.6s17.6,8,17.6,18.6L409.3,406.1L409.3,406.1z"/>
	<path class="st3" d="M272.5,449.2h-4.8c-5.9,0-10.6,4.8-10.6,10.6s4.8,10.6,10.6,10.6h4.8c5.9,0,10.6-4.8,10.6-10.6
		C283.2,454,278.4,449.2,272.5,449.2z"/>
</g>
</svg>
